<svg width="92" height="104" viewBox="0 0 92 104" fill="none" xmlns="http://www.w3.org/2000/svg">
<g clip-path="url(#clip0_399_6360)">
<path fill-rule="evenodd" clip-rule="evenodd" d="M31.1341 68.0178V64.8843L27.3137 64.883V61.314L23.2753 61.3114V55.5979L19.4773 55.5833L19.476 49.6117L17.2324 49.617V43.7936L19.4723 43.7909L19.4698 30.2432L23.3707 30.2471L23.3781 22.59H27.3137L27.2753 16.4533H31.1403L31.1365 12.2167H35.1093V7.98068L39.0709 7.96877L39.0536 3.66907H51.7132V7.9681H55.5794V12.2671H53.4263V12.2801H59.6451V16.4538H63.6006V22.6578H67.6081V30.2815H71.3639V43.8187H73.7439V49.5839H71.3639V55.6826H67.6081V61.2982H63.5944V64.9757H59.5807V68.0363L47.459 68.076V78.8729H43.0475L43.0028 68.0442L31.1341 68.0178Z" fill="#1E894B"/>
<path d="M57.5882 19.4429H55.627V25.7455H57.5882V19.4429Z" fill="#5DD075"/>
<path d="M55.9432 22.5941H53.5332V25.7454H55.9432V22.5941Z" fill="#5DD075"/>
<path fill-rule="evenodd" clip-rule="evenodd" d="M49.9157 30.4199V31.3752H46.0859V22.5941H49.9157V27.3873H53.5336V29.2108H51.814V30.4199H49.9157Z" fill="#5DD075"/>
<path d="M43.1912 30.437H40.7158V36.7787H43.1912V30.437Z" fill="#5DD075"/>
<path d="M41.6209 29.2371H39.1455V34.4258H41.6209V29.2371Z" fill="#5DD075"/>
<path d="M39.3357 26.1191H36.8604V31.3079H39.3357V26.1191Z" fill="#5DD075"/>
<path d="M53.4273 12.267H51.0947V16.5193H53.4273V12.267Z" fill="#5DD075"/>
<path d="M48.3804 7.98206H46.0479V16.5239H48.3804V7.98206Z" fill="#5DD075"/>
<path fill-rule="evenodd" clip-rule="evenodd" d="M63.5914 40.2588V29.1342H61.5613V33.7077H59.6123V36.3648H55.5902V42.3717H49.9318V35.7142H52.0072V32.8928H53.3358V30.2356H55.638V27.6622H57.4485V19.4621H55.6267V22.6571H53.5326V27.4561H49.8945V19.2012H51.0934V16.5183H53.4257L53.4273 12.2668H59.6471L59.6455 16.4539H63.6003V22.6571H67.6078V30.2807H71.3641V43.8178H73.7441V49.583H71.3641V55.6832H67.6078V61.2971H63.5914V50.8488H61.4576V53.7411H51.8809V52.0985H53.518V49.6474H55.5748V48.4139H57.4218V46.3107H59.5847V44.5908H61.2454V40.2588H63.5914ZM51.714 3.66724V7.96704H55.5797V12.2668H49.8346V16.5247H48.3797V3.66724H51.714Z" fill="#99F18D"/>
<path d="M48.7196 1.99573H46.7383V7.98311H48.7196V1.99573Z" fill="#99F18D"/>
<path d="M48.7193 1.99573H42.6094V3.99152H48.7193V1.99573Z" fill="#99F18D"/>
<path d="M46.7393 -0.00012207H44.7051V2.33478H46.7393V-0.00012207Z" fill="#99F18D"/>
<path d="M42.6221 5.64465H40.5879V7.97956H42.6221V5.64465Z" fill="#99F18D"/>
<path fill-rule="evenodd" clip-rule="evenodd" d="M40.5442 12.336H39.0723V7.96782H42.5942V3.66968H44.6442V20.6423H42.5942V16.5247H40.5442V12.336Z" fill="#99F18D"/>
<path fill-rule="evenodd" clip-rule="evenodd" d="M37.5373 16.4057H38.8105V19.3577H40.546V22.5956H42.5948V24.0954H44.6437V36.7804H42.5948V30.4379H38.0665V22.5956H35.1094V12.2177H37.5373V16.4057Z" fill="#99F18D"/>
<path fill-rule="evenodd" clip-rule="evenodd" d="M37.5387 41.435H35.1589V38.0287H31.2979V30.3132H33.4431V33.0058H35.1589V35.7117H37.5387V37.9781H39.2786V40.2126H43.0038V42.2872H44.6451V52.919H40.5473V43.8266H37.5387V41.435Z" fill="#99F18D"/>
<path d="M46.7391 3.66833H44.6445V12.3351H46.7391V3.66833Z" fill="#5DD075"/>
<path d="M47.325 71.2888H45.2305V78.7259H47.325V71.2888Z" fill="#5DD075"/>
<path d="M38.0979 22.5934H35.1094V29.2369H38.0979V22.5934Z" fill="#5DD075"/>
<path d="M35.1106 16.4525H31.1357V22.5933H35.1106V16.4525Z" fill="#5DD075"/>
<path fill-rule="evenodd" clip-rule="evenodd" d="M31.2986 37.9915H35.1555V41.441H37.5689V43.7919H40.5546V46.1682H43.0041V52.9189H40.5546V50.0552H37.6058V47.752H35.1563V46.1682H33.4499V43.7919H31.2928L31.2986 37.9915ZM29.7505 37.9904H27.3145V22.5901H29.7505V25.7063H31.2986V37.9915H29.7505V37.9904Z" fill="#5DD075"/>
<path fill-rule="evenodd" clip-rule="evenodd" d="M27.2159 49.633H23.2754V37.9915H25.6042V42.2766H27.2421V44.5416H29.8313V47.7412H31.1826V49.4926H33.5449V52.0634H36.7043V53.7579H39.3139V55.7952H42.8747V58.1185H44.6828V63.9512H42.722V61.0957H38.9517V59.0584H35.2191V56.8675H31.1826V53.6507H27.2159V49.633Z" fill="#5DD075"/>
<path fill-rule="evenodd" clip-rule="evenodd" d="M48.8295 61.1155V63.9339H46.0879V55.6708H49.7628V53.6334H61.3778V50.8336H63.5104V47.7491H67.3561V54.1987H63.5859V56.8503H59.6065V59.0782H53.476V61.1155H48.8295Z" fill="#5DD075"/>
<path d="M67.3574 46.4359H65.6602V48.0292H67.3574V46.4359Z" fill="#5DD075"/>
<path d="M64.3115 52.6838H62.6143V55.3735H64.3115V52.6838Z" fill="#5DD075"/>
<path d="M64.2783 55.3729H63.5615V57.4401H64.2783V55.3729Z" fill="#1E894B"/>
<path d="M64.9883 54.1992H64.2715V56.1587H64.9883V54.1992Z" fill="#1E894B"/>
<path d="M53.6996 65.5H52.0244V68.0376H53.6996V65.5Z" fill="#5DD075"/>
<path d="M52.9062 67.0944H50.8096V68.0372H52.9062V67.0944Z" fill="#5DD075"/>
<path d="M51.8435 16.5199H51.0928V17.2929H51.8435V16.5199Z" fill="#5DD075"/>
<path d="M0.00292969 101.164V92.8186H2.38494V94.0096H3.57596V92.8186H5.96323V94.0096H7.15684V92.8186H10.7299V94.0096H11.9261V101.164H9.53889V95.2085H7.15684V101.164H4.76695V95.2085H2.38494V101.164H0.00292969Z" fill="#1E894B"/>
<path d="M13.1201 103.546V101.164H15.5021V98.7815H14.3111V96.3995H13.1201V92.8186H15.5021V95.2085H16.6932V97.5905H17.8841V95.2085H19.0804V92.8186H21.4651V96.3995H20.274V98.7815H19.0804V101.164H17.8841V102.355H16.6932V103.546H13.1201Z" fill="#1E894B"/>
<path d="M29.2744 95.2085V92.8187H25.6935V95.2085H29.2744ZM23.3115 101.164V90.4366H30.4655V91.6276H31.6565V96.3996H30.4655V97.5906H25.6935V101.164H23.3115Z" fill="#5DD075"/>
<path d="M32.8467 101.163V92.8185H35.2287V101.163H32.8467ZM32.8467 91.6275V89.2455H35.2287V91.6275H32.8467Z" fill="#5DD075"/>
<path d="M36.4199 101.164V98.7815H37.6136V97.5905H38.8046V96.3995H37.6136V95.2085H36.4199V92.8186H38.8046V94.0096H39.9956V95.2085H41.1866V94.0096H42.3828V92.8186H44.7675V95.2085H43.5739V96.3995H42.3828V97.5905H43.5739V98.7815H44.7675V101.164H42.3828V99.9725H41.1866V98.7815H39.9956V99.9725H38.8046V101.164H36.4199Z" fill="#5DD075"/>
<path d="M51.9229 96.3995V95.2085H48.3419V96.3995H51.9229ZM47.1509 101.164V99.9725H45.96V94.0096H47.1509V92.8186H53.1138V94.0096H54.3049V97.5905H48.3419V98.7815H53.1138V101.164H47.1509Z" fill="#5DD075"/>
<path d="M55.7863 100.861L55.4951 100.858V88.4794H57.8772V99.5308L58.1316 99.5339V99.7882L58.5802 99.7913L58.5671 101.162H55.7837L55.7863 100.861Z" fill="#5DD075"/>
<path d="M60.7822 101.164V90.4366H64.3552V92.8187H65.5489V95.2085H66.7451V92.8187H67.9362V90.4366H71.5092V101.164H69.1271V96.3996H67.9362V98.7816H66.7451V100.503H65.5489V98.7816H64.3552V96.3996H63.1642V101.164H60.7822Z" fill="#99F18D"/>
<path d="M72.7012 101.163V92.8185H75.0832V101.163H72.7012ZM72.7012 91.6275V89.2455H75.0832V91.6275H72.7012Z" fill="#99F18D"/>
<path d="M76.2744 101.164V92.8186H78.6565V94.0096H79.8475V92.8186H83.4284V94.0096H84.6194V101.164H82.2374V95.2085H79.8475V96.3995H78.6565V101.164H76.2744Z" fill="#99F18D"/>
<path d="M88.1916 101.164V99.9726H87.0006V95.2085H85.8096V92.8186H87.0006V90.0378H89.3853V92.8186H91.7725V95.2085H89.3853V98.7815H91.7725V101.164H88.1916Z" fill="#99F18D"/>
<path fill-rule="evenodd" clip-rule="evenodd" d="M59.5816 64.9757V68.0363H53.5186V63.771H57.5548V61.1366H61.1198V59.0186H63.5953V64.9757H59.5816Z" fill="#5DD075"/>
<path fill-rule="evenodd" clip-rule="evenodd" d="M49.9334 47.7041V49.5839H46.0771V37.9212H49.9334V42.3718H53.5752V40.3014H55.5741V36.3472H59.5971V33.0152H61.5484V29.1351H63.595V38.1833H59.6434V42.3718H57.6207V43.7525H55.6217V46.0612H53.742V47.7041H49.9334Z" fill="#5DD075"/>
</g>
<defs>
<clipPath id="clip0_399_6360">
<rect width="91.8717" height="103.653" fill="white"/>
</clipPath>
</defs>
</svg>
